PathFileType	4	(X/Y/Z)	c:/Users/goper/Files/vsCode/490R/osim_files/C06/C06_ROM.trc
DataRate	CameraRate	NumFrames	NumMarkers	Units                	OrigDataRate	OrigDataStartFrame	OrigNumFrames
250.00	250.00	7	36	mm	250.0	1	3421
                Frame#	Time	LPSIS			LASIS			LTH1			LTH2			LTH3			LTH4			LLFE			LMFE			LSH1			LSH2			LSH3			LSH4			LLMAL			LMMAL			LCAL			LMTP5			LTOE			LMTP1			RPSIS			RASIS			RTH1			RTH2			RTH3			RTH4			RLFE			RMFE			RSH1			RSH2			RSH3			RSH4			RLMAL			RMMAL			RCAL			RMTP1			RTOE			RMTP5		
		X1	Y1	Z1	X2	Y2	Z2	X3	Y3	Z3	X4	Y4	Z4	X5	Y5	Z5	X6	Y6	Z6	X7	Y7	Z7	X8	Y8	Z8	X9	Y9	Z9	X10	Y10	Z10	X11	Y11	Z11	X12	Y12	Z12	X13	Y13	Z13	X14	Y14	Z14	X15	Y15	Z15	X16	Y16	Z16	X17	Y17	Z17	X18	Y18	Z18	X19	Y19	Z19	X20	Y20	Z20	X21	Y21	Z21	X22	Y22	Z22	X23	Y23	Z23	X24	Y24	Z24	X25	Y25	Z25	X26	Y26	Z26	X27	Y27	Z27	X28	Y28	Z28	X29	Y29	Z29	X30	Y30	Z30	X31	Y31	Z31	X32	Y32	Z32	X33	Y33	Z33	X34	Y34	Z34	X35	Y35	Z35	X36	Y36	Z36

1	0.00000	-362.68884	1014.54791	443.30765	-194.97063	971.60083	330.78378	-291.00317	801.43652	249.53088	-281.76270	740.14246	238.32837	-216.74269	803.54565	261.72049	-216.74002	743.38885	249.26216	-283.71384	481.73322	246.09877	-294.42511	445.74554	356.24533	-354.10294	377.47427	210.13899	-346.09454	334.58151	205.54622	-289.32721	383.79266	210.39975	-291.56927	339.91913	205.13034	-307.51434	92.77976	212.49562	-300.73853	97.04573	290.56754	-372.41925	65.92198	253.11397	-195.47191	30.67372	185.61287	-146.53264	55.92907	254.84836	-172.28644	36.33776	300.03052	-359.49075	1011.75415	515.00085	-171.10448	969.11920	571.38507	-266.86652	792.01160	668.53632	-259.61554	729.30267	671.54181	-193.94955	792.80786	649.39471	-197.08871	730.14832	656.10742	-280.09991	463.61218	657.87012	-269.90201	460.99295	548.55292	-340.44437	394.19107	684.88037	-338.32220	346.51413	691.66376	-280.27979	387.40259	680.19519	-286.62561	341.76874	687.03967	-314.82025	90.90543	675.74744	-290.64810	105.17428	596.95312	-377.28119	62.19830	633.82684	-173.62408	46.52086	605.02948	-153.11870	54.01012	644.78119	-198.73836	27.10086	711.25696
2	0.00400	-362.63773	1014.56616	443.33667	-194.99634	971.58844	330.82205	-290.99969	801.44849	249.56425	-281.75958	740.14996	238.35936	-216.70847	803.57086	261.76221	-216.73177	743.41425	249.28345	-283.70361	481.74081	246.12071	-294.42142	445.71674	356.26508	-354.06009	377.49191	210.13725	-346.07541	334.59564	205.56161	-289.28979	383.80487	210.42229	-291.54056	339.92560	205.14276	-307.49896	92.78944	212.51207	-300.69839	97.04176	290.57938	-372.40189	65.92864	253.12471	-195.44656	30.68581	185.61612	-146.54578	55.91587	254.86914	-172.27364	36.32816	300.04120	-359.46042	1011.77100	515.02771	-171.09938	969.11511	571.42828	-266.86487	792.00201	668.54999	-259.62469	729.30170	671.56696	-193.95714	792.78638	649.41577	-197.09900	730.12860	656.16608	-280.07959	463.60382	657.90594	-269.92014	460.97870	548.59283	-340.36694	394.17508	684.91870	-338.29190	346.51749	691.69019	-280.24774	387.38400	680.21088	-286.60831	341.75281	687.06256	-314.79373	90.89375	675.75214	-290.64066	105.16880	596.97180	-377.28186	62.20088	633.81897	-173.62074	46.51684	605.04626	-153.08960	54.00728	644.79651	-198.72810	27.08484	711.26367
3	0.00800	-362.64523	1014.57452	443.35864	-195.00337	971.58307	330.85196	-290.98911	801.46973	249.59749	-281.73883	740.15619	238.38820	-216.71936	803.57416	261.77942	-216.70879	743.41498	249.31531	-283.66922	481.73483	246.13835	-294.42792	445.67010	356.27298	-354.03476	377.49258	210.14145	-346.05655	334.58899	205.58707	-289.24152	383.79446	210.43239	-291.47812	339.93167	205.15593	-307.47543	92.79980	212.49521	-300.69061	97.02918	290.58664	-372.40033	65.92999	253.12308	-195.42703	30.66847	185.61964	-146.52481	55.90458	254.87448	-172.27927	36.30081	300.06979	-359.44373	1011.76727	515.05194	-171.07072	969.09900	571.46368	-266.86429	791.99567	668.57507	-259.62570	729.28589	671.58844	-193.94958	792.78046	649.44354	-197.08417	730.14050	656.17615	-280.05130	463.58923	657.92285	-269.89243	460.96106	548.61694	-340.32840	394.14404	684.94861	-338.23602	346.49396	691.72083	-280.23846	387.37054	680.25702	-286.59344	341.72464	687.08667	-314.78702	90.88561	675.77448	-290.64023	105.14858	596.98431	-377.25961	62.19558	633.84479	-173.61168	46.50987	605.05267	-153.08246	53.99200	644.80890	-198.72343	27.07716	711.27594
4	0.01200	-362.63919	1014.58228	443.37997	-195.00267	971.55511	330.86288	-290.97321	801.48303	249.61504	-281.73502	740.17261	238.39731	-216.73183	803.54834	261.80313	-216.71738	743.40765	249.33459	-283.63397	481.72314	246.14059	-294.41733	445.64047	356.28342	-354.01080	377.49048	210.13969	-346.01266	334.59894	205.56427	-289.22116	383.78137	210.43773	-291.49634	339.89944	205.17223	-307.47855	92.79783	212.49402	-300.67639	97.01279	290.57977	-372.37357	65.91281	253.13182	-195.40839	30.66155	185.61023	-146.36644	55.98326	254.78207	-172.27162	36.29207	300.04868	-359.42416	1011.77246	515.06482	-171.10161	969.05438	571.48871	-266.88144	791.98822	668.58667	-259.65399	729.26965	671.61450	-193.97624	792.77264	649.46643	-197.11980	730.10913	656.21002	-280.02637	463.56918	657.94702	-269.88428	460.95502	548.63391	-340.31470	394.13327	684.95471	-338.25247	346.45996	691.74139	-280.19751	387.34283	680.26184	-286.56482	341.69278	687.10870	-314.76187	90.85864	675.76636	-290.62381	105.13231	596.97742	-377.25305	62.15407	633.84631	-173.59525	46.48882	605.04523	-153.08577	53.97529	644.81152	-198.70697	27.06563	711.28766
5	0.01600	-362.65485	1014.57025	443.41351	-195.00134	971.56146	330.88361	-290.96686	801.48676	249.63153	-281.77835	740.16376	238.43834	-216.72224	803.56500	261.82816	-216.73923	743.39233	249.35890	-283.61993	481.71225	246.14667	-294.42114	445.63876	356.31525	-353.97556	377.46826	210.12881	-345.99426	334.59982	205.53970	-289.21048	383.75778	210.43434	-291.45291	339.86578	205.16057	-307.46152	92.79543	212.48592	-300.68576	96.98592	290.57852	-372.34409	65.88847	253.12341	-195.40929	30.63997	185.60146	-146.48743	55.86301	254.83629	-172.27921	36.26425	300.04337	-359.44394	1011.77802	515.10413	-171.12193	969.01086	571.49640	-266.89606	791.98907	668.59967	-259.67404	729.28241	671.63434	-193.98566	792.77240	649.49072	-197.14722	730.10248	656.22693	-280.01605	463.54797	657.96344	-269.88171	460.91989	548.63110	-340.31808	394.10764	684.98438	-338.20230	346.44849	691.76605	-280.20450	387.32275	680.27148	-286.56400	341.68561	687.11194	-314.75406	90.84441	675.79187	-290.63116	105.10182	596.98187	-377.24002	62.11699	633.82941	-173.61819	46.47712	605.03510	-153.09048	53.94862	644.80029	-198.72156	27.04665	711.29016
6	0.02000	-362.66705	1014.59930	443.45056	-195.03914	971.53766	330.88263	-291.00082	801.48669	249.64566	-281.79068	740.18622	238.44113	-216.74609	803.52740	261.83701	-216.76454	743.36737	249.35921	-283.61612	481.69824	246.13936	-294.39267	445.62091	356.31845	-353.96042	377.47330	210.11871	-345.93170	334.56073	205.51260	-289.21951	383.74496	210.42972	-291.44443	339.86002	205.15036	-307.44693	92.78384	212.45724	-300.66312	96.98875	290.58908	-372.35864	65.87914	253.12119	-195.41788	30.62249	185.57742	-146.33702	55.96083	254.74512	-172.28958	36.23255	300.03711	-359.43698	1011.77814	515.14166	-171.14943	968.97150	571.50928	-266.88922	792.01483	668.61780	-259.64502	729.28729	671.65497	-193.99965	792.76294	649.47864	-197.13986	730.12781	656.21722	-279.98706	463.54712	657.96606	-269.87134	460.90115	548.61621	-340.29715	394.10028	685.02563	-338.02008	346.48557	692.26746	-280.20868	387.30652	680.28656	-286.56799	341.64871	687.12976	-314.76117	90.85505	675.79071	-290.65356	105.07658	596.96350	-377.20715	62.08698	633.83185	-173.62059	46.45876	605.01263	-153.09991	53.92164	644.79126	-198.71031	27.04496	711.27765
7	0.02400	-362.66519	1014.58972	443.46692	-195.05960	971.53021	330.88742	-291.01483	801.47858	249.66225	-281.79160	740.16956	238.45786	-216.81291	803.50208	261.85464	-216.82599	743.33270	249.38321	-283.61572	481.67667	246.14015	-294.40259	445.63571	356.34030	-353.93210	377.46725	210.10484	-345.95514	334.53094	205.49438	-289.21487	383.72607	210.43672	-291.45367	339.83188	205.16411	-307.46863	92.76660	212.45119	-300.68759	96.99944	290.59641	-372.32959	65.86246	253.13681	-195.44426	30.60728	185.57591	-146.57040	55.76950	254.81830	-172.30373	36.22430	300.01462	-359.40979	1011.78662	515.16949	-171.15237	968.96722	571.51801	-266.91281	792.01929	668.64288	-259.70346	729.31799	671.66290	-194.05608	792.76727	649.49988	-197.18327	730.13586	656.22827	-279.97507	463.55078	657.97821	-269.85483	460.87320	548.59509	-340.28500	394.11334	685.03833	-338.17212	346.43463	691.82660	-280.19193	387.30609	680.28491	-286.55676	341.65036	687.14795	-314.75522	90.85702	675.80701	-290.65881	105.07369	596.93896	-377.21527	62.05914	633.83252	-173.66652	46.42374	605.00842	-153.10425	53.91053	644.78418	-198.72995	27.04123	711.28546
